<svg height="512pt" viewBox="-20 0 512 512" width="512pt" xmlns="http://www.w3.org/2000/svg"><path d="m253.371094 237.113281h-241.257813c-2.5625 0-4.640625-2.078125-4.640625-4.636719v-47.359374c0-2.5625 2.078125-4.640626 4.640625-4.640626h241.257813c2.5625 0 4.640625 2.078126 4.640625 4.640626v47.359374c0 2.558594-2.078125 4.636719-4.640625 4.636719zm0 0" fill="#eff2fa"/><path d="m374.984375 237.113281h-45.84375c-15.640625 0-28.320313-12.675781-28.320313-28.316406s12.679688-28.320313 28.320313-28.320313h45.84375c15.640625 0 28.320313 12.679688 28.320313 28.320313 0 15.636719-12.679688 28.316406-28.320313 28.316406zm0 0" fill="#87dbff"/><path d="m184.976562 392.132812c0 48.296876-39.148437 87.445313-87.441406 87.445313-48.296875 0-87.445312-39.148437-87.445312-87.445313 0-48.292968 39.148437-87.441406 87.445312-87.441406 48.292969 0 87.441406 39.148438 87.441406 87.441406zm0 0" fill="#cafff0"/><path d="m97.535156 304.691406c-7.570312 0-14.914062.960938-21.921875 2.769532 37.6875 9.726562 65.527344 43.949218 65.527344 84.671874 0 40.726563-27.839844 74.945313-65.527344 84.675782 7.007813 1.804687 14.351563 2.769531 21.921875 2.769531 48.292969 0 87.441406-39.148437 87.441406-87.445313 0-48.292968-39.148437-87.441406-87.441406-87.441406zm0 0" fill="#aaf2e4"/><path d="m253.371094 150.609375h-241.257813c-2.5625 0-4.640625-2.074219-4.640625-4.636719v-47.359375c0-2.5625 2.078125-4.640625 4.640625-4.640625h241.257813c2.5625 0 4.640625 2.078125 4.640625 4.640625v47.359375c0 2.5625-2.078125 4.636719-4.640625 4.636719zm0 0" fill="#eff2fa"/><path d="m374.984375 150.609375h-45.84375c-15.640625 0-28.320313-12.675781-28.320313-28.316406s12.679688-28.316407 28.320313-28.316407h45.84375c15.640625 0 28.320313 12.675782 28.320313 28.316407s-12.679688 28.316406-28.320313 28.316406zm0 0" fill="#87dbff"/><path d="m253.371094 64.109375h-241.257813c-2.5625 0-4.640625-2.078125-4.640625-4.640625v-47.359375c0-2.558594 2.078125-4.636719 4.640625-4.636719h241.257813c2.5625 0 4.640625 2.078125 4.640625 4.636719v47.359375c0 2.5625-2.078125 4.640625-4.640625 4.640625zm0 0" fill="#eff2fa"/><path d="m374.984375 64.109375h-45.84375c-15.640625 0-28.320313-12.679687-28.320313-28.320313 0-15.636718 12.679688-28.316406 28.320313-28.316406h45.84375c15.640625 0 28.320313 12.679688 28.320313 28.316406 0 15.640626-12.679688 28.320313-28.320313 28.320313zm0 0" fill="#87dbff"/><g fill="#6fc7ff"><path d="m374.984375 180.476562h-26.398437c15.636718 0 28.316406 12.679688 28.316406 28.320313 0 15.636719-12.679688 28.316406-28.316406 28.316406h26.402343c15.640625 0 28.316407-12.679687 28.316407-28.316406 0-15.640625-12.679688-28.320313-28.320313-28.320313zm0 0"/><path d="m374.984375 93.976562h-26.398437c15.636718 0 28.316406 12.675782 28.316406 28.316407s-12.679688 28.316406-28.316406 28.316406h26.402343c15.640625 0 28.316407-12.675781 28.316407-28.316406s-12.679688-28.316407-28.320313-28.316407zm0 0"/><path d="m374.984375 7.472656h-26.398437c15.636718 0 28.316406 12.675782 28.316406 28.316406 0 15.640626-12.679688 28.320313-28.316406 28.320313h26.402343c15.640625 0 28.316407-12.679687 28.316407-28.320313 0-15.636718-12.679688-28.316406-28.320313-28.316406zm0 0"/></g><path d="m464.03125 357.28125v83.683594c0 4.132812-.6875 8.210937-2.003906 12.0625-1.3125 3.859375-3.265625 7.492187-5.789063 10.773437-5.050781 6.535157-7.789062 14.5625-7.789062 22.824219v13.9375c0 2.195312-1.773438 3.964844-3.964844 3.964844h-95.039063c-2.191406 0-3.976562-1.769532-3.976562-3.964844v-14.761719c0-10.203125-2.300781-20.277343-6.753906-29.460937l-12.613282-26.046875-39.453124-77.511719c-3.226563-6.328125-1.496094-14.148438 4.34375-18.503906 6.386718-4.75 15.472656-3.296875 20.472656 2.910156l27.898437 34.632812v-154.96875c0-7.433593 5.660157-13.847656 13.070313-14.296874 7.941406-.46875 14.585937 5.707031 14.796875 13.539062.867187 32.210938 1.734375 64.433594 2.601562 96.644531.007813.175781.140625.316407.296875.335938.179688.023437.367188-.128907.378906-.335938l.019532-5.390625c0-6.6875 4.214844-12.394531 10.132812-14.605468 1.925782-.71875 4.015625-1.066407 6.207032-.96875 8.378906.402343 14.835937 7.625 14.835937 16.011718v16.429688c0 .300781.238281.546875.527344.558594.308593.019531.589843-.238282.589843-.578126 1.710938-4.292968 5.277344-7.664062 9.710938-9.085937 1.65625-.527344 3.449219-.796875 5.300781-.726563 8.460938.289063 15.035157 7.53125 15.035157 16v18.09375c0 .628907.507812 1.136719 1.136718 1.136719.40625 0 .777344-.230469.976563-.578125 1.921875-3.308594 5.007812-5.839844 8.714843-7.023437 1.59375-.519531 3.308594-.789063 5.082032-.75 8.398437.167969 15.253906 7.621093 15.253906 16.019531zm0 0" fill="#fdd7bd"/><path d="m443.695312 342.007812v35.371094c0 5.976563-4.839843 10.828125-10.828124 10.828125v-39.730469c0 .625.507812 1.132813 1.136718 1.132813.40625 0 .777344-.226563.976563-.578125 1.921875-3.304688 5.007812-5.835938 8.714843-7.023438zm0 0" fill="#fac5aa"/><path d="m412.53125 315.109375v35.648437c0 5.984376-4.851562 10.839844-10.828125 10.839844v-37.382812c0 .296875.238281.546875.527344.558594.308593.019531.585937-.242188.585937-.578126 1.714844-4.292968 5.28125-7.664062 9.714844-9.085937zm0 0" fill="#fac5aa"/><path d="m380.660156 292.742188v49.953124c0 5.988282-4.851562 10.832032-10.832031 10.832032v-40.789063c.011719.179688.140625.320313.300781.339844.179688.019531.367188-.132813.378906-.339844l.019532-5.390625c0-6.6875 4.214844-12.394531 10.132812-14.605468zm0 0" fill="#fac5aa"/><path d="m342.203125 224.210938v-7.371094c0-6.1875 5.015625-11.199219 11.199219-11.199219 6.070312 0 11.035156 4.832031 11.195312 10.894531l.199219 7.371094c.171875 6.355469-4.933594 11.601562-11.292969 11.601562-6.242187 0-11.300781-5.058593-11.300781-11.296874zm0 0" fill="#fff2ea"/><path d="m253.386719 173.003906h-241.292969c-6.667969 0-12.09375 5.425782-12.09375 12.09375v47.394532c0 6.667968 5.425781 12.09375 12.09375 12.09375h241.292969c6.671875 0 12.09375-5.425782 12.09375-12.09375v-47.394532c0-6.667968-5.421875-12.09375-12.09375-12.09375zm-2.851563 56.636719h-235.589844v-41.691406h235.589844zm0 0"/><path d="m448.449219 333.789062c-2.851563 0-5.585938.523438-8.109375 1.476563v-5.3125c0-12.710937-10.34375-23.054687-23.058594-23.054687-2.851562 0-5.585938.527343-8.109375 1.476562v-1.03125c0-12.714844-10.34375-23.058594-23.058594-23.058594-3.390625 0-6.613281.746094-9.519531 2.066406l-1.125-41.773437c9.386719-.125 18.1875-3.828125 24.816406-10.472656 6.765625-6.753907 10.492188-15.746094 10.492188-25.316407 0-19.730468-16.054688-35.785156-35.789063-35.785156h-45.847656c-9.574219 0-18.5625 3.722656-25.3125 10.484375-6.753906 6.757813-10.476563 15.742188-10.476563 25.300781 0 19.738282 16.054688 35.800782 35.789063 35.800782h2.75v106.042968l-14.859375-18.449218c-3.902344-4.84375-9.703125-7.84375-15.914062-8.226563-6.222657-.382812-12.335938 1.882813-16.800782 6.210938-7.035156 6.816406-8.777344 17.265625-4.332031 25.996093l39.417969 77.449219 12.585937 25.984375c3.933594 8.117188 6.011719 17.175782 6.011719 26.199219v18.730469c0 4.125 3.347656 7.46875 7.472656 7.46875 4.128906 0 7.472656-3.34375 7.472656-7.46875v-18.730469c0-11.265625-2.597656-22.578125-7.507812-32.714844l-12.617188-26.050781c-.019531-.042969-.042968-.089844-.066406-.132812l-39.453125-77.515626c-1.449219-2.847656-.882812-6.257812 1.414063-8.484374 1.480468-1.429688 3.425781-2.152344 5.484375-2.027344 2.054687.128906 3.902343 1.082031 5.191406 2.6875l28.152344 34.945312c1.988281 2.46875 5.320312 3.410156 8.304687 2.359375 2.988282-1.054687 4.988282-3.878906 4.988282-7.046875v-155.347656c0-3.566406 2.898437-6.464844 6.460937-6.464844 3.527344 0 6.367187 2.765625 6.460937 6.289063l3.304688 122.726562c.109375 4.125 3.527344 7.390625 7.667969 7.265625 4.125-.109375 7.378906-3.542968 7.269531-7.667968l-.007812-.230469c.003906-.0625.011718-.121094.011718-.179688v-30.863281c0-4.472656 3.636719-8.113281 8.109375-8.113281 4.476563 0 8.113281 3.640625 8.113281 8.113281v53.476562c0 4.125 3.34375 7.46875 7.472657 7.46875 4.125 0 7.472656-3.34375 7.472656-7.46875v-30.863281c0-4.472656 3.636719-8.113281 8.109375-8.113281 4.476562 0 8.113281 3.640625 8.113281 8.113281v57.753907c0 4.125 3.34375 7.46875 7.472657 7.46875 4.125 0 7.472656-3.34375 7.472656-7.46875v-30.863282c0-4.476562 3.636718-8.113281 8.109375-8.113281 4.476562 0 8.113281 3.636719 8.113281 8.113281v84.121094c0 6.574219-2.214844 13.058594-6.230469 18.257812-6.03125 7.804688-9.351562 17.535157-9.351562 27.398438v17.902344c0 4.128906 3.34375 7.472656 7.46875 7.472656 4.128906 0 7.472656-3.347656 7.472656-7.472656v-17.902344c0-6.574219 2.214844-13.058594 6.234375-18.261719 6.03125-7.800781 9.351562-17.53125 9.351562-27.394531v-84.121094c0-12.714844-10.34375-23.058594-23.058593-23.058594zm-95.148438-138.730468c-11.804687 0-21.410156 9.605468-21.410156 21.410156v13.175781h-2.75c-11.492187 0-20.84375-9.355469-20.84375-20.855469 0-5.5625 2.167969-10.796874 6.105469-14.734374 3.929687-3.9375 9.164062-6.105469 14.738281-6.105469h45.847656c11.496094 0 20.847657 9.347656 20.847657 20.839843 0 5.574219-2.171876 10.808594-6.117188 14.75-3.910156 3.917969-9.113281 6.082032-14.652344 6.101563l-.367187-13.75c-.316407-11.679687-9.714844-20.832031-21.398438-20.832031zm0 0"/><path d="m187.242188 300.675781-23.507813 23.507813c-17.113281-16.675782-40.476563-26.964844-66.199219-26.964844-52.339844 0-94.917968 42.578125-94.917968 94.914062 0 52.339844 42.578124 94.917969 94.917968 94.917969 19.140625 0 37.589844-5.671875 53.355469-16.40625 3.410156-2.324219 4.292969-6.972656 1.972656-10.382812-2.324219-3.414063-6.96875-4.292969-10.382812-1.972657-13.277344 9.039063-28.816407 13.816407-44.945313 13.816407-44.097656 0-79.972656-35.875-79.972656-79.972657 0-44.09375 35.875-79.96875 79.972656-79.96875 21.601563 0 41.21875 8.625 55.625 22.59375l-55.777344 55.777344-24.75-24.753906c-2.921874-2.917969-7.652343-2.917969-10.570312 0s-2.917969 7.648438 0 10.566406l30.039062 30.039063c1.402344 1.402343 3.300782 2.1875 5.28125 2.1875 1.984376 0 3.882813-.785157 5.285157-2.1875l60.234375-60.238281c9.1875 13.019531 14.605468 28.875 14.605468 45.984374 0 17.484376-5.539062 34.09375-16.019531 48.023438-2.480469 3.296875-1.816406 7.980469 1.480469 10.460938 3.296875 2.480468 7.980469 1.820312 10.460938-1.476563 12.445312-16.542969 19.019531-36.253906 19.019531-57.007813 0-21.234374-7.007813-40.863281-18.835938-56.691406l24.199219-24.199218c2.917969-2.917969 2.917969-7.652344 0-10.566407-2.917969-2.917969-7.648438-2.917969-10.570312 0zm0 0"/><path d="m33.855469 216.269531h16.746093c4.128907 0 7.472657-3.347656 7.472657-7.472656 0-4.128906-3.34375-7.472656-7.472657-7.472656h-16.746093c-4.125 0-7.46875 3.347656-7.46875 7.472656-.003907 4.125 3.34375 7.472656 7.46875 7.472656zm0 0"/><path d="m26.382812 122.292969c0 4.128906 3.347657 7.472656 7.472657 7.472656h16.746093c4.125 0 7.472657-3.347656 7.472657-7.472656 0-4.128907-3.347657-7.472657-7.472657-7.472657h-16.746093c-4.125 0-7.472657 3.34375-7.472657 7.472657zm0 0"/><path d="m33.855469 43.261719h16.746093c4.128907 0 7.472657-3.34375 7.472657-7.472657 0-4.125-3.34375-7.46875-7.472657-7.46875h-16.746093c-4.125 0-7.46875 3.34375-7.46875 7.46875 0 4.128907 3.34375 7.472657 7.46875 7.472657zm0 0"/><path d="m78.632812 216.269531h83.164063c4.128906 0 7.472656-3.347656 7.472656-7.472656 0-4.128906-3.34375-7.472656-7.472656-7.472656h-83.164063c-4.128906 0-7.472656 3.347656-7.472656 7.472656s3.34375 7.472656 7.472656 7.472656zm0 0"/><path d="m253.386719 86.503906h-195.3125c-4.128907 0-7.472657 3.34375-7.472657 7.46875 0 4.128906 3.34375 7.472656 7.472657 7.472656h192.460937v41.691407h-235.589844v-41.691407h13.265626c4.125 0 7.472656-3.34375 7.472656-7.472656 0-4.125-3.347656-7.46875-7.472656-7.46875h-16.117188c-6.667969 0-12.09375 5.421875-12.09375 12.09375v47.390625c0 6.667969 5.425781 12.09375 12.09375 12.09375h241.292969c6.671875 0 12.09375-5.425781 12.09375-12.09375v-47.390625c0-6.667968-5.421875-12.09375-12.09375-12.09375zm0 0"/><path d="m329.140625 158.082031h45.84375c19.738281 0 35.792969-16.054687 35.792969-35.789062s-16.054688-35.789063-35.792969-35.789063h-45.84375c-19.734375 0-35.792969 16.054688-35.792969 35.789063s16.058594 35.789062 35.792969 35.789062zm0-56.636719h45.84375c11.496094 0 20.847656 9.351563 20.847656 20.847657 0 11.492187-9.351562 20.84375-20.847656 20.84375h-45.84375c-11.496094 0-20.847656-9.351563-20.847656-20.84375 0-11.496094 9.351562-20.847657 20.847656-20.847657zm0 0"/><path d="m140.292969 129.765625c4.128906 0 7.472656-3.34375 7.472656-7.472656 0-4.125-3.34375-7.472657-7.472656-7.472657h-61.660157c-4.128906 0-7.472656 3.347657-7.472656 7.472657 0 4.128906 3.34375 7.472656 7.472656 7.472656zm0 0"/><path d="m253.386719 0h-241.292969c-6.667969 0-12.09375 5.425781-12.09375 12.09375v47.394531c0 6.667969 5.425781 12.09375 12.09375 12.09375h241.292969c6.671875 0 12.09375-5.425781 12.09375-12.09375v-47.394531c0-6.667969-5.421875-12.09375-12.09375-12.09375zm-2.851563 56.636719h-235.589844v-41.691407h235.589844zm0 0"/><path d="m329.140625 71.582031h45.84375c19.738281 0 35.792969-16.054687 35.792969-35.792969 0-19.734374-16.054688-35.789062-35.792969-35.789062h-6.363281c-4.128906 0-7.472656 3.347656-7.472656 7.472656s3.34375 7.472656 7.472656 7.472656h6.363281c11.496094 0 20.847656 9.351563 20.847656 20.84375 0 11.496094-9.351562 20.847657-20.847656 20.847657h-45.84375c-11.496094 0-20.847656-9.351563-20.847656-20.847657 0-11.492187 9.351562-20.84375 20.847656-20.84375h7.679687c4.128907 0 7.472657-3.347656 7.472657-7.472656s-3.34375-7.472656-7.472657-7.472656h-7.679687c-19.738281 0-35.792969 16.054688-35.792969 35.789062 0 19.734376 16.058594 35.792969 35.792969 35.792969zm0 0"/><path d="m78.632812 43.261719h113.894532c4.128906 0 7.472656-3.34375 7.472656-7.472657 0-4.125-3.34375-7.46875-7.472656-7.46875h-113.894532c-4.128906 0-7.472656 3.34375-7.472656 7.46875 0 4.128907 3.34375 7.472657 7.472656 7.472657zm0 0"/></svg>